<mxfile host="app.diagrams.net" modified="2022-06-24T02:29:35.378Z" agent="5.0 (Windows NT 10.0; Win64; x64) AppleWebKit/537.36 (KHTML, like Gecko) Chrome/103.0.0.0 Safari/537.36" etag="gnGU_5U9JxwSWOF0CG5h" version="20.0.3" type="github">
  <diagram id="6HKOfY0stvO4wBqtCl6a" name="Page-1">
    <mxGraphModel dx="2249" dy="1969" grid="1" gridSize="10" guides="1" tooltips="1" connect="1" arrows="1" fold="1" page="1" pageScale="1" pageWidth="827" pageHeight="1169" math="0" shadow="0">
      <root>
        <mxCell id="0" />
        <mxCell id="1" parent="0" />
        <mxCell id="wt1IpO2e26Ng2IFVDibu-7" value="" style="edgeStyle=orthogonalEdgeStyle;rounded=0;orthogonalLoop=1;jettySize=auto;html=1;" edge="1" parent="1" source="wt1IpO2e26Ng2IFVDibu-1" target="wt1IpO2e26Ng2IFVDibu-6">
          <mxGeometry relative="1" as="geometry" />
        </mxCell>
        <mxCell id="wt1IpO2e26Ng2IFVDibu-9" value="" style="edgeStyle=orthogonalEdgeStyle;rounded=0;orthogonalLoop=1;jettySize=auto;html=1;" edge="1" parent="1" source="wt1IpO2e26Ng2IFVDibu-1" target="wt1IpO2e26Ng2IFVDibu-8">
          <mxGeometry relative="1" as="geometry">
            <Array as="points">
              <mxPoint x="180" y="110" />
              <mxPoint x="90" y="110" />
            </Array>
          </mxGeometry>
        </mxCell>
        <mxCell id="wt1IpO2e26Ng2IFVDibu-11" value="" style="edgeStyle=orthogonalEdgeStyle;rounded=0;orthogonalLoop=1;jettySize=auto;html=1;" edge="1" parent="1" source="wt1IpO2e26Ng2IFVDibu-1" target="wt1IpO2e26Ng2IFVDibu-10">
          <mxGeometry relative="1" as="geometry" />
        </mxCell>
        <mxCell id="wt1IpO2e26Ng2IFVDibu-14" value="" style="edgeStyle=orthogonalEdgeStyle;rounded=0;orthogonalLoop=1;jettySize=auto;html=1;" edge="1" parent="1" source="wt1IpO2e26Ng2IFVDibu-1" target="wt1IpO2e26Ng2IFVDibu-13">
          <mxGeometry relative="1" as="geometry">
            <Array as="points">
              <mxPoint x="240" y="210" />
            </Array>
          </mxGeometry>
        </mxCell>
        <mxCell id="wt1IpO2e26Ng2IFVDibu-16" value="" style="edgeStyle=orthogonalEdgeStyle;rounded=0;orthogonalLoop=1;jettySize=auto;html=1;" edge="1" parent="1" source="wt1IpO2e26Ng2IFVDibu-1" target="wt1IpO2e26Ng2IFVDibu-15">
          <mxGeometry relative="1" as="geometry">
            <Array as="points">
              <mxPoint x="410" y="90" />
            </Array>
          </mxGeometry>
        </mxCell>
        <mxCell id="wt1IpO2e26Ng2IFVDibu-17" style="edgeStyle=orthogonalEdgeStyle;rounded=0;orthogonalLoop=1;jettySize=auto;html=1;exitX=0.5;exitY=0;exitDx=0;exitDy=0;" edge="1" parent="1" source="wt1IpO2e26Ng2IFVDibu-1">
          <mxGeometry relative="1" as="geometry">
            <mxPoint x="220" y="40" as="targetPoint" />
          </mxGeometry>
        </mxCell>
        <mxCell id="wt1IpO2e26Ng2IFVDibu-1" value="CLIENTES" style="rounded=1;whiteSpace=wrap;html=1;arcSize=20;" vertex="1" parent="1">
          <mxGeometry x="150" y="30" width="140" height="70" as="geometry" />
        </mxCell>
        <mxCell id="wt1IpO2e26Ng2IFVDibu-19" value="" style="edgeStyle=orthogonalEdgeStyle;rounded=0;orthogonalLoop=1;jettySize=auto;html=1;" edge="1" parent="1" source="wt1IpO2e26Ng2IFVDibu-2" target="wt1IpO2e26Ng2IFVDibu-18">
          <mxGeometry relative="1" as="geometry" />
        </mxCell>
        <mxCell id="wt1IpO2e26Ng2IFVDibu-21" value="" style="edgeStyle=orthogonalEdgeStyle;rounded=0;orthogonalLoop=1;jettySize=auto;html=1;" edge="1" parent="1" source="wt1IpO2e26Ng2IFVDibu-2" target="wt1IpO2e26Ng2IFVDibu-20">
          <mxGeometry relative="1" as="geometry">
            <Array as="points">
              <mxPoint x="780" y="390" />
            </Array>
          </mxGeometry>
        </mxCell>
        <mxCell id="wt1IpO2e26Ng2IFVDibu-23" value="" style="edgeStyle=orthogonalEdgeStyle;rounded=0;orthogonalLoop=1;jettySize=auto;html=1;" edge="1" parent="1" source="wt1IpO2e26Ng2IFVDibu-2" target="wt1IpO2e26Ng2IFVDibu-22">
          <mxGeometry relative="1" as="geometry" />
        </mxCell>
        <mxCell id="wt1IpO2e26Ng2IFVDibu-27" value="" style="edgeStyle=orthogonalEdgeStyle;rounded=0;orthogonalLoop=1;jettySize=auto;html=1;" edge="1" parent="1" source="wt1IpO2e26Ng2IFVDibu-2" target="wt1IpO2e26Ng2IFVDibu-26">
          <mxGeometry relative="1" as="geometry" />
        </mxCell>
        <mxCell id="wt1IpO2e26Ng2IFVDibu-49" value="" style="edgeStyle=orthogonalEdgeStyle;rounded=1;jumpStyle=gap;orthogonalLoop=1;jettySize=auto;html=1;" edge="1" parent="1" source="wt1IpO2e26Ng2IFVDibu-2" target="wt1IpO2e26Ng2IFVDibu-48">
          <mxGeometry relative="1" as="geometry" />
        </mxCell>
        <mxCell id="wt1IpO2e26Ng2IFVDibu-52" value="" style="edgeStyle=orthogonalEdgeStyle;rounded=1;jumpStyle=gap;orthogonalLoop=1;jettySize=auto;html=1;" edge="1" parent="1" source="wt1IpO2e26Ng2IFVDibu-2" target="wt1IpO2e26Ng2IFVDibu-51">
          <mxGeometry relative="1" as="geometry">
            <Array as="points">
              <mxPoint x="650" y="420" />
              <mxPoint x="440" y="420" />
            </Array>
          </mxGeometry>
        </mxCell>
        <mxCell id="wt1IpO2e26Ng2IFVDibu-2" value="PEDIDOS" style="whiteSpace=wrap;html=1;rounded=1;arcSize=20;" vertex="1" parent="1">
          <mxGeometry x="590" y="340" width="120" height="60" as="geometry" />
        </mxCell>
        <mxCell id="wt1IpO2e26Ng2IFVDibu-6" value="&lt;u&gt;ID CLIENTE&lt;/u&gt;" style="ellipse;whiteSpace=wrap;html=1;rounded=1;arcSize=20;" vertex="1" parent="1">
          <mxGeometry x="-10" y="40" width="120" height="60" as="geometry" />
        </mxCell>
        <mxCell id="wt1IpO2e26Ng2IFVDibu-8" value="NOMBRE" style="ellipse;whiteSpace=wrap;html=1;rounded=1;arcSize=20;" vertex="1" parent="1">
          <mxGeometry y="130" width="120" height="60" as="geometry" />
        </mxCell>
        <mxCell id="wt1IpO2e26Ng2IFVDibu-10" value="TELEFONO" style="ellipse;whiteSpace=wrap;html=1;rounded=1;arcSize=20;" vertex="1" parent="1">
          <mxGeometry x="100" y="200" width="120" height="60" as="geometry" />
        </mxCell>
        <mxCell id="wt1IpO2e26Ng2IFVDibu-13" value="DIRECCIÃ“N" style="ellipse;whiteSpace=wrap;html=1;rounded=1;arcSize=20;" vertex="1" parent="1">
          <mxGeometry x="270" y="180" width="120" height="60" as="geometry" />
        </mxCell>
        <mxCell id="wt1IpO2e26Ng2IFVDibu-15" value="NO. DE PEDIDOS" style="ellipse;whiteSpace=wrap;html=1;rounded=1;arcSize=20;dashed=1;" vertex="1" parent="1">
          <mxGeometry x="350" y="120" width="120" height="60" as="geometry" />
        </mxCell>
        <mxCell id="wt1IpO2e26Ng2IFVDibu-18" value="&lt;u&gt;ID PEDIDO&lt;/u&gt;" style="ellipse;whiteSpace=wrap;html=1;rounded=1;arcSize=20;" vertex="1" parent="1">
          <mxGeometry x="390" y="340" width="120" height="60" as="geometry" />
        </mxCell>
        <mxCell id="wt1IpO2e26Ng2IFVDibu-20" value="FECHA Y HORA DEL PEDIDO" style="ellipse;whiteSpace=wrap;html=1;rounded=1;arcSize=20;" vertex="1" parent="1">
          <mxGeometry x="720" y="470" width="120" height="60" as="geometry" />
        </mxCell>
        <mxCell id="wt1IpO2e26Ng2IFVDibu-22" value="FECHA Y HORA DE ENTREGA" style="ellipse;whiteSpace=wrap;html=1;rounded=1;arcSize=20;" vertex="1" parent="1">
          <mxGeometry x="790" y="340" width="120" height="60" as="geometry" />
        </mxCell>
        <mxCell id="wt1IpO2e26Ng2IFVDibu-38" value="" style="edgeStyle=orthogonalEdgeStyle;rounded=1;jumpStyle=gap;orthogonalLoop=1;jettySize=auto;html=1;" edge="1" parent="1" source="wt1IpO2e26Ng2IFVDibu-26" target="wt1IpO2e26Ng2IFVDibu-37">
          <mxGeometry relative="1" as="geometry">
            <Array as="points">
              <mxPoint x="320" y="580" />
              <mxPoint x="320" y="610" />
              <mxPoint x="230" y="610" />
            </Array>
          </mxGeometry>
        </mxCell>
        <mxCell id="wt1IpO2e26Ng2IFVDibu-43" value="" style="edgeStyle=orthogonalEdgeStyle;rounded=1;jumpStyle=gap;orthogonalLoop=1;jettySize=auto;html=1;" edge="1" parent="1" source="wt1IpO2e26Ng2IFVDibu-26" target="wt1IpO2e26Ng2IFVDibu-42">
          <mxGeometry relative="1" as="geometry">
            <Array as="points">
              <mxPoint x="500" y="610" />
              <mxPoint x="500" y="610" />
            </Array>
          </mxGeometry>
        </mxCell>
        <mxCell id="wt1IpO2e26Ng2IFVDibu-45" value="" style="edgeStyle=orthogonalEdgeStyle;rounded=1;jumpStyle=gap;orthogonalLoop=1;jettySize=auto;html=1;" edge="1" parent="1" source="wt1IpO2e26Ng2IFVDibu-26" target="wt1IpO2e26Ng2IFVDibu-44">
          <mxGeometry relative="1" as="geometry">
            <Array as="points">
              <mxPoint x="550" y="610" />
              <mxPoint x="640" y="610" />
            </Array>
          </mxGeometry>
        </mxCell>
        <mxCell id="wt1IpO2e26Ng2IFVDibu-47" value="" style="edgeStyle=orthogonalEdgeStyle;rounded=1;jumpStyle=gap;orthogonalLoop=1;jettySize=auto;html=1;" edge="1" parent="1" source="wt1IpO2e26Ng2IFVDibu-26" target="wt1IpO2e26Ng2IFVDibu-46">
          <mxGeometry relative="1" as="geometry">
            <Array as="points">
              <mxPoint x="650" y="590" />
              <mxPoint x="650" y="610" />
              <mxPoint x="790" y="610" />
            </Array>
          </mxGeometry>
        </mxCell>
        <mxCell id="wt1IpO2e26Ng2IFVDibu-26" value="PRODUCTOS" style="whiteSpace=wrap;html=1;rounded=1;arcSize=20;" vertex="1" parent="1">
          <mxGeometry x="470" y="540" width="120" height="60" as="geometry" />
        </mxCell>
        <mxCell id="wt1IpO2e26Ng2IFVDibu-30" style="edgeStyle=orthogonalEdgeStyle;rounded=0;orthogonalLoop=1;jettySize=auto;html=1;exitX=1;exitY=0.5;exitDx=0;exitDy=0;" edge="1" parent="1" source="wt1IpO2e26Ng2IFVDibu-28" target="wt1IpO2e26Ng2IFVDibu-26">
          <mxGeometry relative="1" as="geometry" />
        </mxCell>
        <mxCell id="wt1IpO2e26Ng2IFVDibu-28" value="CATALOGO" style="rounded=1;whiteSpace=wrap;html=1;" vertex="1" parent="1">
          <mxGeometry x="-120" y="540" width="120" height="60" as="geometry" />
        </mxCell>
        <mxCell id="wt1IpO2e26Ng2IFVDibu-34" value="" style="endArrow=classic;startArrow=classic;html=1;rounded=1;jumpStyle=gap;exitX=1;exitY=0.5;exitDx=0;exitDy=0;entryX=0.5;entryY=0;entryDx=0;entryDy=0;" edge="1" parent="1" source="wt1IpO2e26Ng2IFVDibu-1" target="wt1IpO2e26Ng2IFVDibu-2">
          <mxGeometry width="50" height="50" relative="1" as="geometry">
            <mxPoint x="390" y="420" as="sourcePoint" />
            <mxPoint x="440" y="370" as="targetPoint" />
            <Array as="points">
              <mxPoint x="650" y="65" />
            </Array>
          </mxGeometry>
        </mxCell>
        <mxCell id="wt1IpO2e26Ng2IFVDibu-54" value="" style="edgeStyle=orthogonalEdgeStyle;rounded=1;jumpStyle=gap;orthogonalLoop=1;jettySize=auto;html=1;" edge="1" parent="1" source="wt1IpO2e26Ng2IFVDibu-35" target="wt1IpO2e26Ng2IFVDibu-53">
          <mxGeometry relative="1" as="geometry" />
        </mxCell>
        <mxCell id="wt1IpO2e26Ng2IFVDibu-83" value="" style="edgeStyle=orthogonalEdgeStyle;rounded=1;jumpStyle=gap;orthogonalLoop=1;jettySize=auto;html=1;entryX=0.5;entryY=0;entryDx=0;entryDy=0;" edge="1" parent="1" source="wt1IpO2e26Ng2IFVDibu-35" target="wt1IpO2e26Ng2IFVDibu-82">
          <mxGeometry relative="1" as="geometry">
            <mxPoint x="690" y="180" as="targetPoint" />
            <Array as="points">
              <mxPoint x="690" y="60" />
              <mxPoint x="690" y="180" />
              <mxPoint x="720" y="180" />
            </Array>
          </mxGeometry>
        </mxCell>
        <mxCell id="wt1IpO2e26Ng2IFVDibu-35" value="COTIZACIONES" style="whiteSpace=wrap;html=1;rounded=1;arcSize=20;" vertex="1" parent="1">
          <mxGeometry x="770" y="30" width="120" height="60" as="geometry" />
        </mxCell>
        <mxCell id="wt1IpO2e26Ng2IFVDibu-37" value="ID PRODUCTO" style="ellipse;whiteSpace=wrap;html=1;rounded=1;arcSize=20;" vertex="1" parent="1">
          <mxGeometry x="160" y="630" width="120" height="60" as="geometry" />
        </mxCell>
        <mxCell id="wt1IpO2e26Ng2IFVDibu-39" value="NOMBRE P." style="ellipse;whiteSpace=wrap;html=1;rounded=1;arcSize=20;" vertex="1" parent="1">
          <mxGeometry x="300" y="630" width="120" height="60" as="geometry" />
        </mxCell>
        <mxCell id="wt1IpO2e26Ng2IFVDibu-40" value="" style="edgeStyle=orthogonalEdgeStyle;rounded=1;jumpStyle=gap;orthogonalLoop=1;jettySize=auto;html=1;entryX=0.5;entryY=0;entryDx=0;entryDy=0;" edge="1" parent="1" target="wt1IpO2e26Ng2IFVDibu-39">
          <mxGeometry relative="1" as="geometry">
            <mxPoint x="480" y="600" as="sourcePoint" />
            <mxPoint x="400" y="640" as="targetPoint" />
            <Array as="points">
              <mxPoint x="360" y="600" />
            </Array>
          </mxGeometry>
        </mxCell>
        <mxCell id="wt1IpO2e26Ng2IFVDibu-42" value="CANTIDAD" style="ellipse;whiteSpace=wrap;html=1;rounded=1;arcSize=20;" vertex="1" parent="1">
          <mxGeometry x="440" y="630" width="120" height="60" as="geometry" />
        </mxCell>
        <mxCell id="wt1IpO2e26Ng2IFVDibu-44" value="COSTO" style="ellipse;whiteSpace=wrap;html=1;rounded=1;arcSize=20;" vertex="1" parent="1">
          <mxGeometry x="580" y="630" width="120" height="60" as="geometry" />
        </mxCell>
        <mxCell id="wt1IpO2e26Ng2IFVDibu-46" value="SUBTOTAL" style="ellipse;whiteSpace=wrap;html=1;rounded=1;arcSize=20;dashed=1;" vertex="1" parent="1">
          <mxGeometry x="730" y="630" width="120" height="60" as="geometry" />
        </mxCell>
        <mxCell id="wt1IpO2e26Ng2IFVDibu-48" value="TOTAL" style="ellipse;whiteSpace=wrap;html=1;rounded=1;arcSize=20;dashed=1;" vertex="1" parent="1">
          <mxGeometry x="590" y="500" width="120" height="60" as="geometry" />
        </mxCell>
        <mxCell id="wt1IpO2e26Ng2IFVDibu-51" value="STATUS" style="ellipse;whiteSpace=wrap;html=1;rounded=1;arcSize=20;" vertex="1" parent="1">
          <mxGeometry x="380" y="440" width="120" height="60" as="geometry" />
        </mxCell>
        <mxCell id="wt1IpO2e26Ng2IFVDibu-53" value="ID COTIZACIÃ“N" style="ellipse;whiteSpace=wrap;html=1;rounded=1;arcSize=20;fontStyle=4" vertex="1" parent="1">
          <mxGeometry x="770" y="-110" width="120" height="60" as="geometry" />
        </mxCell>
        <mxCell id="wt1IpO2e26Ng2IFVDibu-58" value="" style="edgeStyle=orthogonalEdgeStyle;rounded=0;orthogonalLoop=1;jettySize=auto;html=1;exitX=1;exitY=0.25;exitDx=0;exitDy=0;" edge="1" parent="1" target="wt1IpO2e26Ng2IFVDibu-66" source="wt1IpO2e26Ng2IFVDibu-35">
          <mxGeometry relative="1" as="geometry">
            <mxPoint x="1340" y="-60" as="sourcePoint" />
            <Array as="points">
              <mxPoint x="1220" y="45" />
            </Array>
          </mxGeometry>
        </mxCell>
        <mxCell id="wt1IpO2e26Ng2IFVDibu-61" value="FECHA Y HORA DE&lt;br&gt;LA COTIZACION" style="ellipse;whiteSpace=wrap;html=1;rounded=1;arcSize=20;" vertex="1" parent="1">
          <mxGeometry x="1100" y="-50" width="120" height="60" as="geometry" />
        </mxCell>
        <mxCell id="wt1IpO2e26Ng2IFVDibu-62" value="" style="edgeStyle=orthogonalEdgeStyle;rounded=1;jumpStyle=gap;orthogonalLoop=1;jettySize=auto;html=1;" edge="1" parent="1" source="wt1IpO2e26Ng2IFVDibu-66">
          <mxGeometry relative="1" as="geometry">
            <mxPoint x="920" y="170.41960108450212" as="targetPoint" />
            <Array as="points">
              <mxPoint x="1010" y="120" />
              <mxPoint x="1010" y="150" />
              <mxPoint x="920" y="150" />
            </Array>
          </mxGeometry>
        </mxCell>
        <mxCell id="wt1IpO2e26Ng2IFVDibu-63" value="" style="edgeStyle=orthogonalEdgeStyle;rounded=1;jumpStyle=gap;orthogonalLoop=1;jettySize=auto;html=1;" edge="1" parent="1" source="wt1IpO2e26Ng2IFVDibu-66">
          <mxGeometry relative="1" as="geometry">
            <mxPoint x="1190" y="170" as="targetPoint" />
            <Array as="points">
              <mxPoint x="1190" y="150" />
              <mxPoint x="1190" y="150" />
            </Array>
          </mxGeometry>
        </mxCell>
        <mxCell id="wt1IpO2e26Ng2IFVDibu-64" value="" style="edgeStyle=orthogonalEdgeStyle;rounded=1;jumpStyle=gap;orthogonalLoop=1;jettySize=auto;html=1;" edge="1" parent="1" source="wt1IpO2e26Ng2IFVDibu-66">
          <mxGeometry relative="1" as="geometry">
            <mxPoint x="1330" y="170" as="targetPoint" />
            <Array as="points">
              <mxPoint x="1240" y="150" />
              <mxPoint x="1330" y="150" />
            </Array>
          </mxGeometry>
        </mxCell>
        <mxCell id="wt1IpO2e26Ng2IFVDibu-65" value="" style="edgeStyle=orthogonalEdgeStyle;rounded=1;jumpStyle=gap;orthogonalLoop=1;jettySize=auto;html=1;" edge="1" parent="1" source="wt1IpO2e26Ng2IFVDibu-66">
          <mxGeometry relative="1" as="geometry">
            <mxPoint x="1480" y="170" as="targetPoint" />
            <Array as="points">
              <mxPoint x="1340" y="130" />
              <mxPoint x="1340" y="150" />
              <mxPoint x="1480" y="150" />
            </Array>
          </mxGeometry>
        </mxCell>
        <mxCell id="wt1IpO2e26Ng2IFVDibu-78" value="" style="edgeStyle=orthogonalEdgeStyle;rounded=1;jumpStyle=gap;orthogonalLoop=1;jettySize=auto;html=1;" edge="1" parent="1" source="wt1IpO2e26Ng2IFVDibu-66" target="wt1IpO2e26Ng2IFVDibu-77">
          <mxGeometry relative="1" as="geometry" />
        </mxCell>
        <mxCell id="wt1IpO2e26Ng2IFVDibu-66" value="PRODUCTOS" style="whiteSpace=wrap;html=1;rounded=1;arcSize=20;" vertex="1" parent="1">
          <mxGeometry x="1160" y="80" width="120" height="60" as="geometry" />
        </mxCell>
        <mxCell id="wt1IpO2e26Ng2IFVDibu-67" value="" style="edgeStyle=orthogonalEdgeStyle;rounded=1;jumpStyle=gap;orthogonalLoop=1;jettySize=auto;html=1;entryX=0.5;entryY=0;entryDx=0;entryDy=0;" edge="1" parent="1">
          <mxGeometry relative="1" as="geometry">
            <mxPoint x="1170" y="140" as="sourcePoint" />
            <mxPoint x="1050" y="170" as="targetPoint" />
            <Array as="points">
              <mxPoint x="1050" y="140" />
            </Array>
          </mxGeometry>
        </mxCell>
        <mxCell id="wt1IpO2e26Ng2IFVDibu-68" value="TOTAL" style="ellipse;whiteSpace=wrap;html=1;rounded=1;arcSize=20;dashed=1;" vertex="1" parent="1">
          <mxGeometry x="960" y="-100" width="120" height="60" as="geometry" />
        </mxCell>
        <mxCell id="wt1IpO2e26Ng2IFVDibu-70" value="" style="endArrow=classic;html=1;rounded=1;jumpStyle=gap;entryX=0.25;entryY=1;entryDx=0;entryDy=0;entryPerimeter=0;exitX=0.75;exitY=0;exitDx=0;exitDy=0;" edge="1" parent="1" source="wt1IpO2e26Ng2IFVDibu-35" target="wt1IpO2e26Ng2IFVDibu-68">
          <mxGeometry width="50" height="50" relative="1" as="geometry">
            <mxPoint x="1210" y="80" as="sourcePoint" />
            <mxPoint x="1260" y="30" as="targetPoint" />
          </mxGeometry>
        </mxCell>
        <mxCell id="wt1IpO2e26Ng2IFVDibu-71" value="" style="endArrow=classic;html=1;rounded=1;jumpStyle=gap;exitX=1;exitY=0.15;exitDx=0;exitDy=0;exitPerimeter=0;" edge="1" parent="1" source="wt1IpO2e26Ng2IFVDibu-35" target="wt1IpO2e26Ng2IFVDibu-61">
          <mxGeometry width="50" height="50" relative="1" as="geometry">
            <mxPoint x="1210" y="80" as="sourcePoint" />
            <mxPoint x="1260" y="30" as="targetPoint" />
          </mxGeometry>
        </mxCell>
        <mxCell id="wt1IpO2e26Ng2IFVDibu-72" value="ID PRODUCTO" style="ellipse;whiteSpace=wrap;html=1;rounded=1;arcSize=20;" vertex="1" parent="1">
          <mxGeometry x="850" y="170" width="120" height="60" as="geometry" />
        </mxCell>
        <mxCell id="wt1IpO2e26Ng2IFVDibu-73" value="NOMBRE P." style="ellipse;whiteSpace=wrap;html=1;rounded=1;arcSize=20;" vertex="1" parent="1">
          <mxGeometry x="990" y="170" width="120" height="60" as="geometry" />
        </mxCell>
        <mxCell id="wt1IpO2e26Ng2IFVDibu-74" value="CANTIDAD" style="ellipse;whiteSpace=wrap;html=1;rounded=1;arcSize=20;" vertex="1" parent="1">
          <mxGeometry x="1130" y="170" width="120" height="60" as="geometry" />
        </mxCell>
        <mxCell id="wt1IpO2e26Ng2IFVDibu-75" value="COSTO" style="ellipse;whiteSpace=wrap;html=1;rounded=1;arcSize=20;" vertex="1" parent="1">
          <mxGeometry x="1270" y="170" width="120" height="60" as="geometry" />
        </mxCell>
        <mxCell id="wt1IpO2e26Ng2IFVDibu-76" value="SUBTOTAL" style="ellipse;whiteSpace=wrap;html=1;rounded=1;arcSize=20;dashed=1;" vertex="1" parent="1">
          <mxGeometry x="1420" y="170" width="120" height="60" as="geometry" />
        </mxCell>
        <mxCell id="wt1IpO2e26Ng2IFVDibu-77" value="DISPONIBILIDAD" style="ellipse;whiteSpace=wrap;html=1;rounded=1;arcSize=20;" vertex="1" parent="1">
          <mxGeometry x="710" y="110" width="120" height="60" as="geometry" />
        </mxCell>
        <mxCell id="wt1IpO2e26Ng2IFVDibu-79" value="" style="endArrow=classic;startArrow=classic;html=1;rounded=1;jumpStyle=gap;entryX=0;entryY=0.25;entryDx=0;entryDy=0;exitX=1;exitY=0.25;exitDx=0;exitDy=0;" edge="1" parent="1" source="wt1IpO2e26Ng2IFVDibu-1" target="wt1IpO2e26Ng2IFVDibu-35">
          <mxGeometry width="50" height="50" relative="1" as="geometry">
            <mxPoint x="630" y="50" as="sourcePoint" />
            <mxPoint x="680" as="targetPoint" />
          </mxGeometry>
        </mxCell>
        <mxCell id="wt1IpO2e26Ng2IFVDibu-80" value="" style="endArrow=classic;html=1;rounded=1;jumpStyle=gap;exitX=0;exitY=0;exitDx=0;exitDy=0;" edge="1" parent="1" source="wt1IpO2e26Ng2IFVDibu-35" target="wt1IpO2e26Ng2IFVDibu-81">
          <mxGeometry width="50" height="50" relative="1" as="geometry">
            <mxPoint x="610" y="80" as="sourcePoint" />
            <mxPoint x="660" y="-30" as="targetPoint" />
          </mxGeometry>
        </mxCell>
        <mxCell id="wt1IpO2e26Ng2IFVDibu-81" value="FECHA Y HORA DE ENTREGA" style="ellipse;whiteSpace=wrap;html=1;dashed=1;" vertex="1" parent="1">
          <mxGeometry x="600" y="-70" width="120" height="80" as="geometry" />
        </mxCell>
        <mxCell id="wt1IpO2e26Ng2IFVDibu-82" value="CONVERSIONES" style="ellipse;whiteSpace=wrap;html=1;rounded=1;arcSize=20;" vertex="1" parent="1">
          <mxGeometry x="660" y="220" width="120" height="60" as="geometry" />
        </mxCell>
        <mxCell id="wt1IpO2e26Ng2IFVDibu-84" value="" style="endArrow=classic;html=1;rounded=1;jumpStyle=gap;exitX=0.442;exitY=1.017;exitDx=0;exitDy=0;exitPerimeter=0;entryX=0.5;entryY=0;entryDx=0;entryDy=0;" edge="1" parent="1" source="wt1IpO2e26Ng2IFVDibu-82" target="wt1IpO2e26Ng2IFVDibu-2">
          <mxGeometry width="50" height="50" relative="1" as="geometry">
            <mxPoint x="610" y="270" as="sourcePoint" />
            <mxPoint x="700" y="330" as="targetPoint" />
          </mxGeometry>
        </mxCell>
      </root>
    </mxGraphModel>
  </diagram>
</mxfile>
